<svg preserveAspectRatio="none" width="100%" height="100%" overflow="visible" style="display: block;" viewBox="0 0 24 62" fill="none" xmlns="http://www.w3.org/2000/svg">
<g id="Margin">
<path id="Icon" d="M12.4125 25.5C12.7125 25.475 12.9687 25.3562 13.1812 25.1437C13.3937 24.9312 13.5 24.675 13.5 24.375C13.5 24.025 13.3875 23.7438 13.1625 23.5312C12.9375 23.3187 12.65 23.225 12.3 23.25C11.275 23.325 10.1875 23.0437 9.0375 22.4062C7.8875 21.7688 7.1625 20.6125 6.8625 18.9375C6.8125 18.6625 6.68125 18.4375 6.46875 18.2625C6.25625 18.0875 6.0125 18 5.7375 18C5.3875 18 5.1 18.1312 4.875 18.3937C4.65 18.6562 4.575 18.9625 4.65 19.3125C5.075 21.5875 6.075 23.2125 7.65 24.1875C9.225 25.1625 10.8125 25.6 12.4125 25.5V25.5M12 30C8.575 30 5.71875 28.825 3.43125 26.475C1.14375 24.125 0 21.2 0 17.7C0 15.2 0.99375 12.4812 2.98125 9.54375C4.96875 6.60625 7.975 3.425 12 0C16.025 3.425 19.0312 6.60625 21.0187 9.54375C23.0062 12.4812 24 15.2 24 17.7C24 21.2 22.8563 24.125 20.5688 26.475C18.2813 28.825 15.425 30 12 30V30" fill="var(--fill-0, #95CCFF)"/>
</g>
</svg>
