<svg preserveAspectRatio="none" width="100%" height="100%" overflow="visible" style="display: block;" viewBox="0 0 27.6082 62" fill="none" xmlns="http://www.w3.org/2000/svg">
<g id="Margin">
<path id="Icon" d="M13.8632 30C12.4382 30 11.1757 29.55 10.0757 28.65C8.97566 27.75 8.28816 26.6 8.01316 25.2C6.68816 25.625 5.35066 25.6 4.00066 25.125C2.65066 24.65 1.61316 23.825 0.888158 22.65C0.138158 21.45 -0.136842 20.1187 0.0631579 18.6562C0.263158 17.1938 0.913158 15.975 2.01316 15C0.963158 14.05 0.331908 12.875 0.119408 11.475C-0.0930921 10.075 0.138158 8.775 0.813158 7.575C1.48816 6.375 2.50691 5.50625 3.86941 4.96875C5.23191 4.43125 6.58816 4.375 7.93816 4.8C8.21316 3.4 8.90066 2.25 10.0007 1.35C11.1007 0.45 12.3632 0 13.7882 0C15.2132 0 16.4757 0.45 17.5757 1.35C18.6757 2.25 19.3632 3.4 19.6382 4.8C21.0382 4.375 22.3944 4.4125 23.7069 4.9125C25.0194 5.4125 26.0382 6.3 26.7632 7.575C27.4382 8.825 27.6819 10.1312 27.4944 11.4937C27.3069 12.8562 26.6632 14.025 25.5632 15C26.6632 15.975 27.3194 17.1812 27.5319 18.6187C27.7444 20.0562 27.5132 21.4 26.8382 22.65C26.1132 23.925 25.0944 24.775 23.7819 25.2C22.4694 25.625 21.1132 25.625 19.7132 25.2C19.4382 26.6 18.7507 27.75 17.6507 28.65C16.5507 29.55 15.2882 30 13.8632 30V30M13.7882 21C15.4382 21 16.8507 20.4125 18.0257 19.2375C19.2007 18.0625 19.7882 16.65 19.7882 15C19.7882 13.35 19.2007 11.9375 18.0257 10.7625C16.8507 9.5875 15.4382 9 13.7882 9C12.1382 9 10.7257 9.5875 9.55066 10.7625C8.37566 11.9375 7.78816 13.35 7.78816 15C7.78816 16.65 8.37566 18.0625 9.55066 19.2375C10.7257 20.4125 12.1382 21 13.7882 21V21" fill="var(--fill-0, #95CCFF)"/>
</g>
</svg>
