<svg preserveAspectRatio="none" width="100%" height="100%" overflow="visible" style="display: block;" viewBox="0 0 27.4688 21.25" fill="none" xmlns="http://www.w3.org/2000/svg">
<g id="Container">
<path id="Icon" d="M7.46875 18.75H19.9688V7.90625L13.7188 3.125L7.46875 7.90625V18.75V18.75M4.96875 21.25V9.8125L1.46875 12.5L0 10.5312L13.7188 0L27.4688 10.5L25.9688 12.5L22.4688 9.8125V21.25H4.96875V21.25M13.7188 16.25C14.4062 16.25 14.9948 16.0052 15.4844 15.5156C15.974 15.026 16.2188 14.4375 16.2188 13.75C16.2188 13.1875 16.0625 12.5885 15.75 11.9531C15.4375 11.3177 14.7604 10.25 13.7188 8.75C12.6771 10.25 12 11.3177 11.6875 11.9531C11.375 12.5885 11.2188 13.1875 11.2188 13.75C11.2188 14.4375 11.4635 15.026 11.9531 15.5156C12.4427 16.0052 13.0312 16.25 13.7188 16.25V16.25M13.7188 13.75V13.75V13.75V13.75V13.75V13.75V13.75" fill="var(--fill-0, #95CCFF)"/>
</g>
</svg>
