<svg preserveAspectRatio="none" width="100%" height="100%" overflow="visible" style="display: block;" viewBox="0 0 30 56" fill="none" xmlns="http://www.w3.org/2000/svg">
<g id="Margin">
<path id="Icon" d="M0 24V21H8.625C8.075 18.875 7.03125 17.0438 5.49375 15.5063C3.95625 13.9688 2.125 12.925 0 12.375C0.5 12.25 0.99375 12.1562 1.48125 12.0938C1.96875 12.0312 2.475 12 3 12C6.35 12 9.1875 13.1625 11.5125 15.4875C13.8375 17.8125 15 20.65 15 24H0V24M18 24C18 22.95 17.8875 21.9062 17.6625 20.8687C17.4375 19.8312 17.1125 18.8375 16.6875 17.8875C17.7375 16.1125 19.1688 14.6875 20.9813 13.6125C22.7938 12.5375 24.8 12 27 12C27.525 12 28.0312 12.0312 28.5187 12.0938C29.0062 12.1562 29.5 12.25 30 12.375C27.875 12.925 26.05 13.9688 24.525 15.5063C23 17.0438 21.95 18.875 21.375 21H30V24H18V24M15 15.0375C15 13.4125 15.3 11.8875 15.9 10.4625C16.5 9.0375 17.325 7.78125 18.375 6.69375C19.425 5.60625 20.6563 4.7375 22.0688 4.0875C23.4813 3.4375 24.9875 3.0875 26.5875 3.0375C25.1875 3.9125 23.9625 4.9875 22.9125 6.2625C21.8625 7.5375 21.05 8.9625 20.475 10.5375C19.375 11.0625 18.3687 11.7063 17.4562 12.4688C16.5437 13.2312 15.725 14.0875 15 15.0375V15.0375M12.2625 12.225C11.9625 12 11.6625 11.7875 11.3625 11.5875C11.0625 11.3875 10.75 11.1875 10.425 10.9875C10.425 10.8375 10.4375 10.6813 10.4625 10.5188C10.4875 10.3563 10.5 10.2 10.5 10.05C10.5 8.15 10.2 6.35 9.6 4.65C9 2.95 8.15 1.4 7.05 0C8.7 0.675 10.1313 1.64375 11.3438 2.90625C12.5562 4.16875 13.4875 5.625 14.1375 7.275C13.6875 8.025 13.3 8.81875 12.975 9.65625C12.65 10.4937 12.4125 11.35 12.2625 12.225V12.225" fill="var(--fill-0, #95CCFF)"/>
</g>
</svg>
