<svg preserveAspectRatio="none" width="100%" height="100%" overflow="visible" style="display: block;" viewBox="0 0 27.5 25.625" fill="none" xmlns="http://www.w3.org/2000/svg">
<g id="Container">
<path id="Icon" d="M11.25 25.625V23.125H27.5V25.625H11.25V25.625M12.5 21.875C12.5 20.1875 13.0312 18.7135 14.0938 17.4531C15.1562 16.1927 16.5 15.4167 18.125 15.125V14.3438C18.125 13.9896 18.2448 13.6927 18.4844 13.4531C18.724 13.2135 19.0208 13.0938 19.375 13.0938C19.7292 13.0938 20.026 13.2135 20.2656 13.4531C20.5052 13.6927 20.625 13.9896 20.625 14.3438V15.125C22.2292 15.4167 23.5677 16.1927 24.6406 17.4531C25.7135 18.7135 26.25 20.1875 26.25 21.875H12.5V21.875M15.7812 19.3438H22.9062C22.5104 18.7812 22.0052 18.3281 21.3906 17.9844C20.776 17.6406 20.1042 17.4688 19.375 17.4688C18.625 17.4688 17.9375 17.6406 17.3125 17.9844C16.6875 18.3281 16.1771 18.7812 15.7812 19.3438V19.3438M19.3438 19.3438V19.3438V19.3438V19.3438V19.3438V19.3438V19.3438M0 14.375V0.625H7.5V2.4375L16.25 0L26.25 3.125V4.375C26.25 5.41667 25.8854 6.30208 25.1562 7.03125C24.4271 7.76042 23.5417 8.125 22.5 8.125H20V8.875C20 9.39583 19.849 9.86979 19.5469 10.2969C19.2448 10.724 18.8542 11.0312 18.375 11.2188L9.9375 14.375H0V14.375M2.5 11.875H5V3.125H2.5V11.875V11.875M7.5 11.875H9.5L16.75 9.21875C16.9792 9.13542 17.1615 8.99479 17.2969 8.79688C17.4323 8.59896 17.5 8.375 17.5 8.125V8.125V8.125V8.125H15.2812L11.625 9.3125L10.875 6.9375L14.7812 5.625H22.5C22.6875 5.625 22.9219 5.55729 23.2031 5.42188C23.4844 5.28646 23.625 5.125 23.625 4.9375V4.9375L16.1875 2.625L7.5 5V11.875V11.875" fill="var(--fill-0, #95CCFF)"/>
</g>
</svg>
